<svg xmlns="http://www.w3.org/2000/svg" viewBox="0 0 490 246"><path fill="#D4D4D4" d="M478.97 162.63a.9.9 0 0 0-.86-.63H435.9a.9.9 0 0 0-.9.9v29.62a.9.9 0 0 0 .48.8.9.9 0 0 0 .93-.06l42.22-29.62a.9.9 0 0 0 .34-1.01zm-42.17 28.18V163.8h2.7v2.03a.9.9 0 0 0 .9.9.9.9 0 0 0 .9-.9v-2.03h2.78v2.03a.9.9 0 0 0 .9.9.9.9 0 0 0 .9-.9v-2.03h2.77v2.03a.9.9 0 0 0 .9.9.9.9 0 0 0 .9-.9v-2.03h2.76v2.03a.9.9 0 0 0 .9.9.9.9 0 0 0 .9-.9v-2.03h2.77v2.03a.9.9 0 0 0 .9.9.9.9 0 0 0 .9-.9v-2.03h2.77v2.03a.9.9 0 0 0 1.8 0v-2.03h2.72v2.03a.9.9 0 0 0 1.8 0v-2.03h6.6l-38.47 27z"/><path fill="#D4D4D4" d="M458.23 168.28h-16.05a.9.9 0 0 0-.9.9v11.26a.9.9 0 0 0 1.41.74l16.05-11.27a.9.9 0 0 0-.51-1.63zm-15.15 10.43v-8.63h12.31l-12.31 8.63zM461.64 208.24a12.41 12.41 0 1 0-.01 24.82 12.41 12.41 0 0 0 .01-24.82zm0 23.02a10.62 10.62 0 1 1 0-21.24 10.62 10.62 0 0 1 0 21.24z"/><path fill="#D4D4D4" d="M481.55 223.85a.9.9 0 0 0 .73-.88v-4.64a.9.9 0 0 0-.73-.88l-3.14-.6c-.1-.43-.21-.87-.34-1.3l2.41-2.1a.9.9 0 0 0 .2-1.12l-2.33-4.02a.9.9 0 0 0-1.07-.4l-3.02 1.06c-.3-.33-.62-.65-.95-.95l1.06-3.02a.9.9 0 0 0-.4-1.07l-4.02-2.32a.9.9 0 0 0-1.13.2l-2.1 2.4a16.7 16.7 0 0 0-1.3-.34l-.6-3.14a.9.9 0 0 0-.88-.73h-4.6a.9.9 0 0 0-.89.73l-.6 3.14c-.43.1-.87.21-1.3.34l-2.1-2.4a.9.9 0 0 0-1.12-.2l-4.02 2.32a.9.9 0 0 0-.4 1.07l1.05 3.02c-.33.3-.64.62-.95.95L446 207.9a.9.9 0 0 0-1.07.4l-2.32 4.02a.9.9 0 0 0 .2 1.13l2.41 2.1c-.13.42-.25.86-.35 1.3l-3.13.6a.9.9 0 0 0-.73.87v4.64a.9.9 0 0 0 .73.88l3.13.6c.1.44.22.87.35 1.3l-2.42 2.1a.9.9 0 0 0-.19 1.13l2.32 4a.9.9 0 0 0 1.07.4l3.02-1.04c.3.33.62.64.95.95l-1.05 3.01a.9.9 0 0 0 .4 1.08l4.02 2.31a.9.9 0 0 0 1.12-.19l2.1-2.41c.43.13.87.24 1.3.34l.6 3.14a.9.9 0 0 0 .88.73h4.64a.9.9 0 0 0 .88-.73l.6-3.14c.44-.1.88-.21 1.3-.34l2.1 2.41a.9.9 0 0 0 1.13.2l4.02-2.33a.9.9 0 0 0 .4-1.07l-1.06-3.01c.33-.3.65-.62.95-.95l3.02 1.05a.9.9 0 0 0 1.07-.4l2.32-4.01a.9.9 0 0 0-.19-1.13l-2.4-2.1c.13-.43.25-.86.35-1.3l3.09-.6zm-5.1 2.87 2.3 1.99-1.57 2.73-2.88-1a.9.9 0 0 0-.97.25c-.5.58-1.05 1.13-1.63 1.63a.9.9 0 0 0-.27.97l1 2.89-2.72 1.57-2-2.3a.9.9 0 0 0-.97-.26c-.73.25-1.47.45-2.23.6a.9.9 0 0 0-.71.7l-.58 3h-3.15l-.57-3a.9.9 0 0 0-.71-.7 15.3 15.3 0 0 1-2.23-.6.9.9 0 0 0-.98.25l-1.99 2.3-2.73-1.58 1-2.88a.9.9 0 0 0-.26-.97c-.58-.5-1.13-1.05-1.63-1.63a.9.9 0 0 0-.97-.26l-2.89 1-1.57-2.73 2.3-1.99a.9.9 0 0 0 .27-.97c-.26-.73-.46-1.47-.6-2.23a.9.9 0 0 0-.72-.71l-3-.57v-3.14l3-.57a.9.9 0 0 0 .72-.72c.14-.75.34-1.5.6-2.22a.9.9 0 0 0-.26-.98l-2.31-2 1.57-2.72 2.89 1a.9.9 0 0 0 .97-.26c.5-.58 1.05-1.13 1.63-1.63a.9.9 0 0 0 .26-.97l-1-2.88 2.73-1.58 2 2.3a.9.9 0 0 0 .97.27c.72-.26 1.47-.46 2.22-.6a.9.9 0 0 0 .72-.72l.57-3h3.15l.58 3a.9.9 0 0 0 .71.72c.76.14 1.5.34 2.23.6a.9.9 0 0 0 .97-.26l2-2.3 2.72 1.57-1 2.88a.9.9 0 0 0 .26.97c.58.5 1.13 1.05 1.63 1.63a.9.9 0 0 0 .98.26l2.88-1 1.58 2.73-2.31 1.99a.9.9 0 0 0-.26.97c.26.73.46 1.47.6 2.23a.9.9 0 0 0 .71.72l3 .57v3.15l-3 .57a.9.9 0 0 0-.71.71c-.15.76-.35 1.5-.6 2.23a.89.89 0 0 0 .24.97h.02zM361.02 208.99l29.28-29.27a.9.9 0 0 0 0-1.27l-27.2-27.2a.9.9 0 0 0-1.27 0l-26.36 26.35a5.05 5.05 0 0 0 0 7.13l24.3 24.26a.9.9 0 0 0 1.25 0zm2.3-4.84-21.34-21.32a.9.9 0 0 0-1.26 1.26l21.33 21.33-1.66 1.67-23.64-23.63a3.26 3.26 0 0 1 1.02-5.37 3.25 3.25 0 0 1 3.58.77L365 202.5l-1.67 1.66zm2.94-2.93-23.64-23.62a5.03 5.03 0 0 0-3.15-1.46l22.99-22.98 25.94 25.93-22.14 22.13z"/><path fill="#D4D4D4" d="m355.22 167.67 18.67 18.66a.9.9 0 0 0 1.27 0l6.82-6.82a.9.9 0 0 0 0-1.27l-18.67-18.66a.9.9 0 0 0-1.27 0l-6.82 6.82a.9.9 0 0 0 0 1.27zm7.46-6.18 17.39 17.38-5.56 5.55-17.39-17.39 5.55-5.54zM307.16 180.26l25.26-25.25a8.23 8.23 0 1 0-11.65-11.65l-25.15 25.14-.09.1a.9.9 0 0 0-.25.5l-1.73 11.68a.9.9 0 0 0 .53.95.9.9 0 0 0 .37.08h.1l12.07-1.28a.9.9 0 0 0 .54-.27zm19.44-37.5a6.43 6.43 0 0 1 5.12 10.3l-9-9a6.4 6.4 0 0 1 3.88-1.3zm-5.2 2.52 9.12 9.1-22.45 22.44a3.33 3.33 0 0 0-3.32-2.37 3.35 3.35 0 0 0-2.03-3.19 3.33 3.33 0 0 0-1.3-.27h-.12v-.12a3.32 3.32 0 0 0-2.33-3.17l22.44-22.42zm-15.38 33.5-10.54 1.15 1.5-10.22a1.54 1.54 0 0 1 2.4 1.77c-.08.19-.2.36-.33.5a.9.9 0 0 0 .03 1.23.9.9 0 0 0 1.23.04 1.58 1.58 0 0 1 2.18 0 1.56 1.56 0 0 1 .45 1.09 1.55 1.55 0 0 1-.45 1.08.9.9 0 0 0-.25 1.02.9.9 0 0 0 .5.5.9.9 0 0 0 1.02-.25 1.54 1.54 0 0 1 2.25 2.1h.01z"/><path fill="#D4D4D4" d="M309.26 171.4a.9.9 0 0 0 1.27 0l15.65-15.65a.9.9 0 0 0 .24-1 .9.9 0 0 0-1.22-.48.9.9 0 0 0-.29.22l-15.65 15.64a.9.9 0 0 0 0 1.27zM304.98 171.67a.9.9 0 0 0 .63-.26l15.66-15.65a.9.9 0 0 0-.05-1.22.9.9 0 0 0-1.22-.05l-15.66 15.65a.9.9 0 0 0 .14 1.38c.15.1.32.15.5.15zM304.99 166.76a.9.9 0 0 0 .63-.26l15.66-15.65a.9.9 0 0 0 .3-.64.9.9 0 0 0-1.57-.63l-15.66 15.65a.9.9 0 0 0 .14 1.38c.15.1.32.15.5.15zM443.06 86.91a.9.9 0 0 0 .9.9h42.21a.9.9 0 0 0 .52-1.62l-19.73-14.01 4.07-5.68a.9.9 0 0 0-.2-1.26l-11.08-7.91a.9.9 0 0 0-1.25.2l-4.1 5.73-9.92-7.05a.9.9 0 0 0-1.46.5.92.92 0 0 0 .15.71c.07.1.16.19.27.25l18.2 12.93v5.54l-.42-.43a.9.9 0 0 0-1.27 1.27l1.96 1.96.04.03.05.04c.06.05.13.09.2.12l.14.04h.03a.99.99 0 0 0 .33 0h.03l.14-.04.03-.02a.81.81 0 0 0 .26-.18l2.01-2a.9.9 0 1 0-1.27-1.27l-.48.47v-4.26l9.99 7.1a4.84 4.84 0 0 0-2.62 3.02 4.73 4.73 0 0 0 .76 4.03h-27.6a.9.9 0 0 0-.89.9zm20.4-17.24V66.9a2.01 2.01 0 1 0-1.8 0v1.5l-5.79-4.1 3.57-5 9.6 6.88-3.54 4.97-2.05-1.48zm9.09 12.78c.3-1.1 1.47-2.03 2.72-2.18l8.1 5.75h-8.84a2.94 2.94 0 0 1-2-3.57h.02zM303.04 65.58a.9.9 0 0 0-.86-.62h-42.21a.9.9 0 0 0-.9.9v29.62a.9.9 0 0 0 .48.8.92.92 0 0 0 .93-.07l42.21-29.62a.9.9 0 0 0 .35-1zm-42.17 28.18v-27h2.7v2.02a.9.9 0 0 0 1.8 0v-2.03h2.78v2.03a.9.9 0 1 0 1.8 0v-2.03h2.77v2.03a.9.9 0 1 0 1.8 0v-2.03h2.76v2.03a.9.9 0 0 0 1.8 0v-2.03h2.77v2.03a.9.9 0 0 0 1.8 0v-2.03h2.77v2.03a.9.9 0 0 0 1.8 0v-2.03h2.72v2.03a.9.9 0 0 0 1.8 0v-2.03h6.6l-38.47 27z"/><path fill="#D4D4D4" d="M282.3 71.24h-16.05a.9.9 0 0 0-.9.9V83.4a.9.9 0 0 0 .9.9.9.9 0 0 0 .51-.17l16.05-11.26a.9.9 0 0 0-.51-1.63zm-15.15 10.43v-8.64h12.31l-12.31 8.64zM414.29 103.1a8.06 8.06 0 0 0 .6-10.74l7.8-7.79a8.07 8.07 0 0 0 10.74-12l-16.56-16.55a5.46 5.46 0 0 0-7.72 7.71.9.9 0 0 0 1.27-1.27 3.65 3.65 0 0 1 5.17-5.18l12.98 12.97a8.07 8.07 0 0 0-7.16 13.05l-7.8 7.8a8.07 8.07 0 0 0-13.05 7.15l-12.98-12.97a3.66 3.66 0 1 1 5.18-5.17.9.9 0 1 0 1.26-1.27 5.46 5.46 0 0 0-7.71 7.7l16.56 16.56a8.1 8.1 0 0 0 11.42 0zm9-29.27a6.27 6.27 0 1 1 8.88 8.88 6.27 6.27 0 0 1-8.89-8.88zm-19.14 19.13a6.27 6.27 0 1 1 8.88 8.88 6.27 6.27 0 0 1-8.88-8.88zM363.02 75.99l5.87-5.88 23.41-23.37a.9.9 0 0 0 0-1.27l-27.2-27.2a.9.9 0 0 0-1.27 0l-26.36 26.32a5.05 5.05 0 0 0 0 7.14l24.3 24.26a.9.9 0 0 0 1.25 0zm2.3-4.84-21.34-21.32a.9.9 0 0 0-1.26 1.26l21.33 21.33-1.66 1.67-23.64-23.63a3.26 3.26 0 0 1 1.02-5.37 3.26 3.26 0 0 1 3.58.77L367 69.49l-1.67 1.66zm2.94-2.93-23.64-23.63a5.02 5.02 0 0 0-3.15-1.45l22.99-22.98L390.4 46.1l-22.14 22.13z"/><path fill="#D4D4D4" d="m357.22 34.67 18.67 18.66a.9.9 0 0 0 1.27 0l6.82-6.82a.9.9 0 0 0 0-1.27L365.3 26.58a.9.9 0 0 0-1.27 0l-6.82 6.82a.9.9 0 0 0 0 1.27zm7.46-6.19 17.39 17.39-5.56 5.55-17.39-17.39 5.55-5.55zM404.01 140.54c0 .07.02.14.03.2-4.7-2.28-4.2 8.1-7.04 11.3 3.37 1.4 12.84-2 11.02-7.09.2.05.38.07.58.08 1.35 0 3.2-.94 7.8-5.54 3.6-3.6 8.87-8.96 12.89-13.74 5.22-6.22 6.77-9.56 5.18-11.15a2.1 2.1 0 0 0-1.55-.6c-3.27 0-10.47 5.75-23.37 18.64-4.67 4.68-5.6 6.54-5.54 7.9zm28.91-23.14c-.53 1.23-1.85 3.41-5.03 7.2a221.55 221.55 0 0 1-12.13 12.98 12.7 12.7 0 0 0-1.3-1.74l18.46-18.45zm-1.25-1.3-18.47 18.47c-.54-.48-1.12-.91-1.74-1.29 12.03-11.97 17.64-16.11 20.21-17.17zm-17.23 22.79c-2.94 2.87-4.9 4.33-5.84 4.33-.3 0-.5-.2-.95-.72a7.2 7.2 0 0 0-1.13-1.13c-.51-.43-.72-.64-.73-.92-.04-.9 1.43-2.89 4.34-5.87 1.76.9 3.57 2.87 4.31 4.31zM198.06 88.4a.9.9 0 0 0 .9.9h42.21a.9.9 0 0 0 .85-1.18.9.9 0 0 0-.33-.45l-19.73-14.01 4.07-5.68a.9.9 0 0 0-.21-1.25l-11.07-7.92a.9.9 0 0 0-1.25.2l-4.1 5.73-9.92-7.04a.9.9 0 0 0-1.47.5.92.92 0 0 0 .15.7c.08.1.17.2.27.26l18.22 12.93v5.53l-.43-.42a.9.9 0 0 0-1.27 1.27l1.96 1.95.04.03.05.05.2.11.14.05h.02a.99.99 0 0 0 .34 0h.02l.14-.05.03-.01a.81.81 0 0 0 .26-.18l2.02-2.01a.89.89 0 0 0 .31-.65.9.9 0 0 0-1.58-.62l-.48.48v-4.26l9.99 7.09a4.84 4.84 0 0 0-2.62 3.02 4.73 4.73 0 0 0 .76 4.03h-27.6a.9.9 0 0 0-.89.9zm20.4-17.24v-2.78a2.01 2.01 0 1 0-1.8 0v1.5l-5.79-4.1 3.57-5 9.6 6.88-3.54 4.97-2.05-1.47zm9.09 12.78c.3-1.1 1.47-2.04 2.72-2.18l8.1 5.74h-8.85a2.94 2.94 0 0 1-1.98-3.56zM458.4 140.28a3.97 3.97 0 1 0 7.95 0 3.97 3.97 0 0 0-7.95 0zM463.37 118.7a1.31 1.31 0 0 0 .93-2.24 1.3 1.3 0 0 0-1.43-.28 1.31 1.31 0 0 0 .5 2.52zM457.32 123.52a1.93 1.93 0 1 0 0 3.87 1.93 1.93 0 0 0 0-3.87zM468.3 132.28a2.33 2.33 0 1 0 0-4.66 2.33 2.33 0 0 0 0 4.66z"/><path fill="#D4D4D4" d="M479.66 113a.9.9 0 0 0 .64-1.53.9.9 0 0 0-.64-.27h-5.37a.9.9 0 0 0-.9.9v12.31c0 .24.1.47.27.64a14.8 14.8 0 1 1-20.94 0 .9.9 0 0 0 .26-.64V112.1a.9.9 0 0 0-.9-.9h-5.73a.9.9 0 0 0-.63 1.54c.17.16.4.26.63.26h4.83v11.05a16.59 16.59 0 1 0 24 0V113h4.48zM318.14 83.86a12.42 12.42 0 1 0 0 24.84 12.42 12.42 0 0 0 0-24.84zm0 23.02a10.61 10.61 0 1 1 0-21.23 10.61 10.61 0 0 1 0 21.23z"/><path fill="#D4D4D4" d="M338.05 99.47a.9.9 0 0 0 .73-.89v-4.63a.9.9 0 0 0-.73-.88l-3.14-.6c-.1-.44-.21-.87-.35-1.3l2.42-2.1a.9.9 0 0 0 .2-1.13l-2.33-4a.9.9 0 0 0-1.07-.4l-3.02 1.04c-.3-.33-.62-.64-.95-.95l1.06-3.01a.9.9 0 0 0-.4-1.07l-4.02-2.32a.9.9 0 0 0-1.13.2l-2.1 2.4c-.42-.13-.86-.25-1.3-.34l-.6-3.14a.9.9 0 0 0-.88-.73h-4.6a.9.9 0 0 0-.89.73l-.6 3.14c-.43.1-.87.21-1.3.34l-2.1-2.4a.9.9 0 0 0-1.12-.2l-4.02 2.32a.9.9 0 0 0-.4 1.07l1.05 3.01c-.33.3-.64.62-.95.95l-3.02-1.05a.9.9 0 0 0-1.07.4l-2.32 4.01a.9.9 0 0 0 .2 1.13l2.41 2.1c-.13.43-.25.86-.35 1.3l-3.13.6a.9.9 0 0 0-.73.88v4.63a.9.9 0 0 0 .73.89l3.13.6c.1.43.22.87.35 1.3l-2.42 2.08a.9.9 0 0 0-.19 1.13l2.32 4.01a.9.9 0 0 0 1.07.4l3.02-1.05c.3.33.62.64.95.95l-1.05 3.01a.9.9 0 0 0 .4 1.08l4.02 2.31a.9.9 0 0 0 1.12-.19l2.1-2.41c.43.13.87.25 1.3.34l.6 3.14a.9.9 0 0 0 .89.73h4.63a.9.9 0 0 0 .88-.73l.6-3.14c.44-.1.88-.21 1.3-.34l2.1 2.41a.9.9 0 0 0 1.13.2l4.02-2.33a.9.9 0 0 0 .4-1.07l-1.09-3c.33-.3.65-.62.95-.95l3.02 1.05a.9.9 0 0 0 1.07-.4l2.32-4.01a.9.9 0 0 0-.2-1.13l-2.39-2.08c.13-.43.25-.87.35-1.3l3.12-.61zm-5.1 2.86 2.3 2-1.57 2.72-2.88-1a.9.9 0 0 0-.98.26c-.5.58-1.04 1.12-1.62 1.63a.9.9 0 0 0-.27.97l1 2.88-2.72 1.58-2-2.3a.9.9 0 0 0-.97-.27c-.73.26-1.47.46-2.23.6a.9.9 0 0 0-.71.71l-.58 3h-3.15l-.57-3a.9.9 0 0 0-.71-.7c-.76-.15-1.5-.35-2.23-.6a.9.9 0 0 0-.67.02.88.88 0 0 0-.3.22l-2 2.3-2.73-1.57 1-2.88a.9.9 0 0 0-.26-.98c-.58-.5-1.13-1.04-1.63-1.62a.9.9 0 0 0-.97-.26l-2.89 1-1.57-2.73 2.3-1.99a.9.9 0 0 0 .27-.98 15.7 15.7 0 0 1-.6-2.22.9.9 0 0 0-.72-.72l-3-.57V94.7l3-.57a.9.9 0 0 0 .72-.71c.14-.76.34-1.5.6-2.23a.9.9 0 0 0-.27-.98l-2.3-1.99 1.57-2.72 2.89 1a.9.9 0 0 0 .97-.26c.5-.59 1.05-1.13 1.63-1.63a.9.9 0 0 0 .26-.97l-1-2.89 2.73-1.57 2 2.3a.9.9 0 0 0 .96.26c.73-.25 1.48-.45 2.23-.6a.9.9 0 0 0 .72-.7l.57-3h3.15l.57 3a.9.9 0 0 0 .72.7c.76.15 1.5.35 2.23.6a.9.9 0 0 0 .97-.26l2-2.3 2.72 1.57-1 2.89a.9.9 0 0 0 .26.97c.58.5 1.13 1.05 1.63 1.63a.9.9 0 0 0 .98.26l2.88-1 1.57 2.72-2.3 2a.9.9 0 0 0-.26.97c.25.73.45 1.47.6 2.23a.9.9 0 0 0 .71.71l3 .57v3.15l-3 .57a.9.9 0 0 0-.71.72c-.15.76-.35 1.5-.6 2.23a.9.9 0 0 0 .24.97h.02zM269.84 112.89a20.65 20.65 0 0 0-14.6 35.22 20.64 20.64 0 1 0 14.6-35.22zm0 39.47a18.86 18.86 0 0 1-18.49-22.52 18.83 18.83 0 0 1 25.7-13.73 18.84 18.84 0 0 1-7.21 36.25z"/><path fill="#D4D4D4" d="M271.53 133.94c.04-.14.06-.28.06-.43 0-.14-.02-.28-.06-.42l3-3a.9.9 0 0 0 .3-.64.9.9 0 0 0-1.57-.63l-3 3a1.61 1.61 0 0 0-.42-.06 1.76 1.76 0 0 0-1.69 2.44 1.75 1.75 0 0 0 1.69 1.06c.14 0 .28-.02.42-.06l5.7 5.7c.08.1.18.16.3.22a.9.9 0 0 0 1.2-.48.9.9 0 0 0-.23-1l-5.7-5.7z"/><path fill="#D4D4D4" d="M286.67 133.52a16.78 16.78 0 0 0-5.01-11.96 16.8 16.8 0 0 0-23.8.14 16.78 16.78 0 0 0 .15 23.79 16.8 16.8 0 0 0 23.72-.06l.06-.08a16.78 16.78 0 0 0 4.87-11.82l.01-.01zm-4.61.9h2.78a14.96 14.96 0 0 1-3.76 9.07l-1.97-1.96a.9.9 0 1 0-1.27 1.27l1.97 1.96a15 15 0 0 1-9.08 3.77v-2.79a.9.9 0 0 0-1.8 0v2.79a15 15 0 0 1-9.08-3.77l1.97-1.96a.9.9 0 0 0-1.28-1.27l-1.96 1.96a14.95 14.95 0 0 1-3.77-9.07h2.79a.9.9 0 0 0 .9-.9.9.9 0 0 0-.9-.9h-2.79c.2-3.36 1.53-6.56 3.77-9.07l1.96 1.96a.9.9 0 1 0 1.28-1.27l-1.97-1.96a15 15 0 0 1 9.08-3.77v2.79a.9.9 0 0 0 .9.9.9.9 0 0 0 .9-.9v-2.79a15 15 0 0 1 9.08 3.77l-1.97 1.96a.9.9 0 0 0-.19.98.9.9 0 0 0 .83.55.9.9 0 0 0 .63-.26l1.97-1.96a14.96 14.96 0 0 1 3.76 9.07h-2.78a.9.9 0 0 0-.9.9.9.9 0 0 0 .9.9z"/><path fill="#D4D4D4" d="M286.68 133.83a16.78 16.78 0 0 0-5.01-11.96 16.8 16.8 0 0 0-23.8.14 16.78 16.78 0 0 0 .15 23.78 16.8 16.8 0 0 0 23.72-.05l.06-.09a16.78 16.78 0 0 0 4.87-11.81l.01-.01zm-4.61.9h2.78a14.95 14.95 0 0 1-3.76 9.07l-1.97-1.96a.89.89 0 0 0-.65-.31.9.9 0 0 0-.62 1.58l1.97 1.96a15 15 0 0 1-9.08 3.77v-2.79a.9.9 0 0 0-1.8 0v2.79a15 15 0 0 1-9.08-3.77l1.97-1.96a.9.9 0 0 0-1.28-1.27l-1.96 1.96a14.95 14.95 0 0 1-3.77-9.07h2.79a.9.9 0 0 0 .64-1.54.9.9 0 0 0-.64-.26h-2.79c.2-3.36 1.53-6.56 3.77-9.07l1.96 1.96a.9.9 0 0 0 1 .24.9.9 0 0 0 .28-1.5l-1.97-1.97a15 15 0 0 1 9.08-3.77v2.79a.9.9 0 0 0 1.8 0v-2.79a15 15 0 0 1 9.08 3.77l-1.97 1.96a.9.9 0 0 0 1.27 1.27l1.97-1.96a14.95 14.95 0 0 1 3.76 9.07h-2.78a.9.9 0 1 0 0 1.8zM385.18 112.44c0-.03 0-.06-.03-.09a.74.74 0 0 0-.04-.09l-.04-.06-.11-.14-12.8-12.8a.92.92 0 0 0-.15-.11l-.06-.04a.5.5 0 0 0-.18-.07l-.08-.02a.83.83 0 0 0-.17-.02H351.9a.9.9 0 0 0-.9.9v40.46a.9.9 0 0 0 .9.9h32.43a.9.9 0 0 0 .9-.9v-27.67l-.02-.17a.83.83 0 0 0-.03-.08zm-12.77-10.38 9.75 9.73h-9.75v-9.73zm11.02 37.4h-30.64v-38.67h17.83v11.9a.9.9 0 0 0 .9.9h11.9v25.87z"/><path fill="#D4D4D4" d="M358.59 120.15a.9.9 0 0 0 .9.9h16.08a.9.9 0 0 0 .9-.9.9.9 0 0 0-.9-.9h-16.08a.9.9 0 0 0-.9.9zM373.77 128.52a.9.9 0 1 0 0-1.8h-12.49a.9.9 0 1 0 0 1.8h12.49zM375.56 134.21h-16.08a.9.9 0 0 0-.9.9.9.9 0 0 0 .9.9h16.08a.9.9 0 1 0 0-1.8zM436.43 15.24l-20.88-8.18a.92.92 0 0 0-.65 0l-21.33 8.18a.9.9 0 0 0-.42 1.35c.1.15.25.26.42.33l2.03.8v3.2a1.9 1.9 0 0 0-.45 3.01v4.81a1.35 1.35 0 0 0 2.3.96c.25-.26.4-.6.4-.96v-4.81a1.9 1.9 0 0 0 .2-2.44 1.9 1.9 0 0 0-.66-.58v-2.5l5.2 2.04v.03a12.41 12.41 0 0 0 24.84 0v-.11l9-3.46a.9.9 0 0 0 .41-1.34.9.9 0 0 0-.41-.33zM415 31.1a10.64 10.64 0 0 1-10.6-9.93l10.04 3.94a.88.88 0 0 0 .65 0l10.52-4.03A10.63 10.63 0 0 1 415 31.09H415zm-.23-7.8-17.92-7.02-.47-.18 18.84-7.23 18.41 7.21-18.86 7.23zM324.52 20.6l-2.9-1.58V12.3a.9.9 0 0 0-.78-.9L303.1 9h-.18l-.08.01-.1.02-.05.02-.1.05-21.12 11.51a.9.9 0 0 0-.46.79v30.68a.9.9 0 0 0 1.32.8l20.7-11.29 20.69 11.28a.9.9 0 0 0 1.32-.79V21.4a.9.9 0 0 0-.52-.8zm-22.43 19.44-19.32 10.53V21.93L302.1 11.4v28.64zm17.73-26.98v4.98l-12.14-6.62 12.14 1.64zm3.37 37.5-19.3-10.53V11.4l19.3 10.53v28.63z"/><path fill="#D4D4D4" d="m296 36.38-9.12 4.97a.9.9 0 0 0 .44 1.68.9.9 0 0 0 .42-.1l9.12-4.98a.9.9 0 0 0-.86-1.57zM288.82 33.54c.15 0 .3-.04.43-.1l6.1-3.33a.9.9 0 0 0 .32-1.2.9.9 0 0 0-1.18-.38l-6.1 3.33a.9.9 0 0 0 .43 1.68zM286.13 26.34c.15 0 .3-.04.43-.1l11.48-6.27a.9.9 0 0 0 .5-.53.88.88 0 0 0-.07-.72.9.9 0 0 0-1.28-.32l-11.48 6.26a.9.9 0 0 0 .43 1.68h-.01zM319.08 41.35l-9.12-4.97a.9.9 0 1 0-.85 1.57l9.11 4.97c.13.07.28.11.43.11a.9.9 0 0 0 .43-1.68zM316.71 33.43c.13.07.28.11.43.11a.9.9 0 0 0 .43-1.68l-6.1-3.33a.9.9 0 1 0-.86 1.58l6.1 3.32zM307.92 19.97l11.48 6.26a.9.9 0 0 0 .86-1.57l-11.48-6.26a.9.9 0 0 0-1.16 1.36c.09.09.19.16.3.21zM264.43 25.25l-20.88-8.2a.92.92 0 0 0-.65 0l-21.33 8.2a.9.9 0 0 0-.42 1.34c.1.15.25.26.42.33l2.03.8v3.2a1.9 1.9 0 0 0-.45 3.01v4.8a1.35 1.35 0 0 0 2.7 0v-4.8a1.9 1.9 0 0 0 .2-2.43 1.9 1.9 0 0 0-.66-.58v-2.5l5.19 2.02v.03a12.4 12.4 0 0 0 17.18 11.47 12.41 12.41 0 0 0 7.67-11.47v-.1l9-3.45a.9.9 0 0 0 .41-1.34.9.9 0 0 0-.41-.33zM243 41.09a10.65 10.65 0 0 1-10.6-9.93l10.04 3.94c.1.04.22.06.33.06a.9.9 0 0 0 .32-.06l10.51-4.03A10.63 10.63 0 0 1 243 41.09zm-.23-7.8-17.92-7.02-.47-.18 18.84-7.23 18.41 7.2-18.86 7.24zM176.97 211.63a.9.9 0 0 0-.86-.63H133.9a.9.9 0 0 0-.9.9v29.62a.9.9 0 0 0 .48.8.9.9 0 0 0 .93-.06l42.22-29.62a.9.9 0 0 0 .34-1.01zm-42.17 28.18V212.8h2.7v2.03a.9.9 0 0 0 .9.9.9.9 0 0 0 .9-.9v-2.03h2.78v2.03a.9.9 0 0 0 .9.9.9.9 0 0 0 .9-.9v-2.03h2.77v2.03a.9.9 0 0 0 .9.9.9.9 0 0 0 .9-.9v-2.03h2.76v2.03a.9.9 0 0 0 .9.9.9.9 0 0 0 .9-.9v-2.03h2.77v2.03a.9.9 0 0 0 .9.9.9.9 0 0 0 .9-.9v-2.03h2.77v2.03a.9.9 0 0 0 1.8 0v-2.03h2.72v2.03a.9.9 0 0 0 1.8 0v-2.03h6.6l-38.47 27z"/><path fill="#D4D4D4" d="M156.23 217.28h-16.05a.9.9 0 0 0-.9.9v11.26a.9.9 0 0 0 1.41.74l16.05-11.27a.9.9 0 0 0-.51-1.63zm-15.15 10.43v-8.63h12.31l-12.31 8.63zM207.62 210.24a12.41 12.41 0 1 0-.01 24.82 12.41 12.41 0 0 0 .01-24.82zm0 23.02a10.62 10.62 0 1 1 0-21.24 10.62 10.62 0 0 1 0 21.24z"/><path fill="#D4D4D4" d="M227.54 225.85a.9.9 0 0 0 .73-.88v-4.64a.9.9 0 0 0-.73-.88l-3.14-.6c-.1-.43-.21-.87-.34-1.3l2.41-2.1a.9.9 0 0 0 .2-1.13l-2.33-4a.9.9 0 0 0-1.07-.4l-3.02 1.04c-.3-.33-.62-.64-.95-.95l1.05-3.01a.9.9 0 0 0-.4-1.07l-4.01-2.32a.9.9 0 0 0-1.13.2l-2.1 2.4a16.7 16.7 0 0 0-1.3-.34l-.6-3.14a.9.9 0 0 0-.88-.73h-4.6a.9.9 0 0 0-.89.73l-.6 3.14c-.43.1-.87.21-1.3.34l-2.08-2.4a.9.9 0 0 0-1.13-.2l-4.01 2.32a.9.9 0 0 0-.4 1.07l1.05 3.02c-.33.3-.65.61-.95.94l-3.02-1.05a.9.9 0 0 0-1.07.4l-2.32 4.01a.9.9 0 0 0 .19 1.13l2.42 2.1c-.14.43-.25.87-.35 1.3l-3.14.6a.9.9 0 0 0-.73.88v4.64a.9.9 0 0 0 .73.88l3.14.6c.1.44.21.87.35 1.3l-2.42 2.1a.9.9 0 0 0-.2 1.13l2.33 4a.9.9 0 0 0 1.07.4l3.02-1.04c.3.32.62.64.95.94l-1.05 3.02a.9.9 0 0 0 .4 1.08l4 2.3a.9.9 0 0 0 1.13-.2l2.09-2.4c.43.12.86.24 1.3.34l.6 3.13a.9.9 0 0 0 .88.73h4.64a.9.9 0 0 0 .88-.73l.6-3.13c.44-.1.88-.22 1.3-.35l2.1 2.42a.9.9 0 0 0 1.13.19l4.01-2.32a.9.9 0 0 0 .4-1.07l-1.05-3.02c.33-.3.64-.62.95-.95l3.02 1.05a.9.9 0 0 0 1.07-.4l2.32-4.01a.9.9 0 0 0-.2-1.13l-2.4-2.1c.14-.42.26-.86.36-1.3l3.09-.58zm-5.1 2.87 2.3 1.99-1.58 2.73-2.88-1a.9.9 0 0 0-.98.26c-.5.58-1.04 1.12-1.63 1.63a.9.9 0 0 0-.26.97l1 2.88-2.72 1.58-2-2.3a.9.9 0 0 0-.97-.27c-.73.26-1.47.46-2.23.6a.9.9 0 0 0-.71.71l-.58 3h-3.15l-.57-3a.9.9 0 0 0-.71-.7 15.3 15.3 0 0 1-2.23-.6.9.9 0 0 0-.98.25l-2 2.3-2.72-1.58 1-2.88a.9.9 0 0 0-.26-.98c-.58-.5-1.13-1.04-1.63-1.62a.9.9 0 0 0-.97-.26l-2.88 1.01-1.58-2.73 2.3-1.99a.9.9 0 0 0 .27-.97c-.26-.73-.46-1.47-.6-2.23a.9.9 0 0 0-.72-.72l-3-.57v-3.15l3-.57a.9.9 0 0 0 .72-.72c.14-.75.34-1.5.6-2.22a.9.9 0 0 0-.26-.98l-2.31-2 1.57-2.72 2.89 1a.9.9 0 0 0 .97-.26c.5-.58 1.05-1.13 1.63-1.63a.9.9 0 0 0 .26-.97l-1-2.88 2.73-1.58 2 2.3a.9.9 0 0 0 .97.27 15.3 15.3 0 0 1 2.22-.6.9.9 0 0 0 .72-.72l.57-3h3.15l.58 3a.9.9 0 0 0 .71.72c.76.14 1.5.34 2.23.6a.9.9 0 0 0 .97-.26l2-2.3 2.72 1.57-1 2.88a.9.9 0 0 0 .26.97c.58.5 1.13 1.05 1.63 1.63a.9.9 0 0 0 .98.26l2.88-1 1.58 2.73-2.32 1.99a.9.9 0 0 0-.26.98c.25.72.45 1.47.6 2.22a.9.9 0 0 0 .71.72l3 .57v3.15l-3 .57a.9.9 0 0 0-.71.71c-.15.76-.35 1.5-.6 2.23a.9.9 0 0 0 .26.98h.02zM88.57 240.62a8.07 8.07 0 0 0 .6-10.74l7.8-7.79a8.07 8.07 0 0 0 10.74-12l-16.56-16.55a5.46 5.46 0 0 0-7.72 7.71.9.9 0 0 0 1.27-1.27 3.67 3.67 0 1 1 5.17-5.18l12.97 12.97a8.07 8.07 0 0 0-7.15 13.05l-7.8 7.8a8.06 8.06 0 0 0-13.05 7.15L61.87 222.8a3.66 3.66 0 1 1 5.17-5.18.9.9 0 0 0 1.27-1.26 5.46 5.46 0 0 0-7.71 7.7l16.56 16.56a8.1 8.1 0 0 0 11.4 0zm9-29.27a6.28 6.28 0 1 1 8.88 8.89 6.28 6.28 0 0 1-8.89-8.89zM78.43 230.5a6.28 6.28 0 1 1 8.87 8.89 6.28 6.28 0 0 1-8.87-8.89zM9.06 237.92a.9.9 0 0 0 .9.9h42.22a.9.9 0 0 0 .52-1.63l-19.74-14.01 4.07-5.68a.9.9 0 0 0-.2-1.25l-11.07-7.93a.9.9 0 0 0-1.25.21l-4.1 5.73-9.93-7.05a.9.9 0 1 0-1.04 1.46l18.21 12.93v5.53l-.42-.42a.9.9 0 0 0-1.46.66c-.01.23.06.44.2.62l1.96 1.95.04.03.05.05.2.11.14.04h.19l.17-.01h.02l.14-.05h.03a.72.72 0 0 0 .27-.18l2-2a.9.9 0 0 0-1.26-1.27l-.48.47v-4.25l9.99 7.1a4.82 4.82 0 0 0-2.62 3.01 4.72 4.72 0 0 0 .76 4.03H9.97a.9.9 0 0 0-.9.9zm20.4-17.24v-2.76a2.01 2.01 0 1 0-1.8 0v1.5l-5.78-4.11 3.57-4.99 9.6 6.87-3.55 4.96-2.04-1.47zm9.1 12.78c.3-1.1 1.46-2.04 2.72-2.18l8.1 5.75h-8.86a2.94 2.94 0 0 1-1.98-3.57h.01zM53.58 65.58a.9.9 0 0 0-.86-.62H10.51a.9.9 0 0 0-.9.9v29.62a.9.9 0 0 0 1.4.73l42.22-29.62a.9.9 0 0 0 .35-1zM11.4 93.76v-27h2.7v2.02a.9.9 0 0 0 1.8 0v-2.03h2.79v2.03a.9.9 0 1 0 1.8 0v-2.03h2.76v2.03a.9.9 0 0 0 1.8 0v-2.03h2.77v2.03a.9.9 0 0 0 1.8 0v-2.03h2.77v2.03a.9.9 0 0 0 1.8 0v-2.03h2.76v2.03a.9.9 0 0 0 1.8 0v-2.03h2.73v2.03a.9.9 0 0 0 1.8 0v-2.03h6.6l-38.48 27z"/><path fill="#D4D4D4" d="M32.84 71.24H16.79a.9.9 0 0 0-.9.9V83.4a.9.9 0 0 0 1.41.73l16.05-11.26a.9.9 0 0 0-.52-1.63zM17.68 81.67v-8.64H30l-12.31 8.64zM160.57 100.62a8.07 8.07 0 0 0 .6-10.74l7.8-7.79a8.07 8.07 0 0 0 10.74-12l-16.56-16.55a5.46 5.46 0 0 0-7.72 7.71.9.9 0 0 0 1.27-1.27 3.66 3.66 0 0 1 5.17-5.18l12.97 12.97a8.07 8.07 0 0 0-7.15 13.05l-7.8 7.8a8.07 8.07 0 0 0-13.05 7.15L133.87 82.8a3.66 3.66 0 1 1 5.17-5.18.9.9 0 0 0 1.27-1.26 5.46 5.46 0 0 0-7.71 7.7l16.56 16.56a8.1 8.1 0 0 0 11.41 0zm9-29.27a6.28 6.28 0 1 1 8.88 8.88 6.28 6.28 0 0 1-8.89-8.88zm-19.14 19.13a6.27 6.27 0 1 1 8.88 8.87 6.27 6.27 0 0 1-8.88-8.87zM110.02 61.99l5.87-5.88 23.41-23.37a.9.9 0 0 0 0-1.27L112.1 4.26a.9.9 0 0 0-1.27 0L84.47 30.59a5.05 5.05 0 0 0 0 7.14l24.3 24.25a.9.9 0 0 0 1.25 0zm2.3-4.84L90.98 35.83a.9.9 0 0 0-1.26 1.26l21.33 21.33-1.66 1.67-23.64-23.63a3.25 3.25 0 1 1 4.6-4.6L114 55.49l-1.67 1.66zm2.94-2.93L91.62 30.59a5.02 5.02 0 0 0-3.15-1.45l22.99-22.98L137.4 32.1l-22.14 22.13z"/><path fill="#D4D4D4" d="m104.22 20.67 18.67 18.66a.9.9 0 0 0 1.27 0l6.82-6.82a.9.9 0 0 0 0-1.27L112.3 12.58a.9.9 0 0 0-1.27 0l-6.82 6.82a.9.9 0 0 0 0 1.27zm7.46-6.19 17.39 17.39-5.56 5.55-17.39-17.39 5.55-5.55zM179.62 45.21l25.26-25.25a8.23 8.23 0 0 0-11.65-11.64l-25.15 25.15-.09.08a.9.9 0 0 0-.25.5L166 45.76a.9.9 0 0 0 .53.95.9.9 0 0 0 .37.07h.1l12.1-1.3a.9.9 0 0 0 .51-.26zm19.44-37.5A6.43 6.43 0 0 1 204.18 18l-9-9a6.39 6.39 0 0 1 3.88-1.3zm-5.2 2.52 9.12 9.09-22.46 22.45a3.32 3.32 0 0 0-3.33-2.38 3.35 3.35 0 0 0-2.02-3.19 3.33 3.33 0 0 0-1.3-.26h-.12v-.12a3.32 3.32 0 0 0-2.33-3.18l22.45-22.41zM178.49 43.7l-10.54 1.15 1.5-10.23a1.54 1.54 0 0 1 2.06 2.27.9.9 0 0 0 .04 1.24.9.9 0 0 0 1.23.03 1.58 1.58 0 0 1 2.18 0 1.55 1.55 0 0 1 .34 1.68c-.08.19-.2.36-.34.5a.89.89 0 0 0-.25 1.01.9.9 0 0 0 .5.51.9.9 0 0 0 1.02-.25 1.54 1.54 0 0 1 2.18 0 1.53 1.53 0 0 1 .08 2.1z"/><path fill="#D4D4D4" d="M181.71 36.33a.9.9 0 0 0 1.27 0l15.65-15.64a.9.9 0 0 0-1.27-1.27l-15.65 15.64a.9.9 0 0 0 0 1.27zM177.44 36.6a.9.9 0 0 0 .63-.26l15.66-15.65a.9.9 0 1 0-1.27-1.25L176.8 35.08a.9.9 0 0 0 .14 1.38c.15.1.32.15.5.15zM177.44 31.7a.9.9 0 0 0 .64-.27l15.66-15.65a.9.9 0 0 0 .04-1.3.9.9 0 0 0-1.31.03l-15.65 15.65a.9.9 0 0 0 .13 1.38c.15.1.32.15.5.15h-.01zM159.18 130.89c0 .07.02.14.03.2-4.7-2.28-4.2 8.1-7.04 11.3 3.37 1.4 12.84-2 11.03-7.09.18.05.38.07.57.08 1.35 0 3.2-.95 7.8-5.54 3.6-3.6 8.87-8.96 12.89-13.74 5.22-6.22 6.77-9.56 5.18-11.15a2.1 2.1 0 0 0-1.55-.6c-3.27 0-10.47 5.75-23.37 18.64-4.67 4.68-5.6 6.54-5.54 7.9zm28.91-23.14c-.53 1.23-1.85 3.41-5.02 7.2a221.92 221.92 0 0 1-12.14 12.98 12.7 12.7 0 0 0-1.3-1.74l18.46-18.45zm-1.25-1.3-18.47 18.47c-.54-.48-1.12-.92-1.74-1.29 12.03-11.97 17.64-16.11 20.21-17.17zm-17.23 22.78c-2.95 2.88-4.9 4.34-5.84 4.34-.3 0-.5-.2-.95-.72a5.97 5.97 0 0 0-1.13-1.13c-.5-.44-.72-.64-.72-.92-.04-.9 1.42-2.89 4.33-5.87 1.76.9 3.57 2.87 4.31 4.31zM211.95 141.08a3.97 3.97 0 1 0 7.94 0 3.97 3.97 0 0 0-7.94 0zM216.92 119.5a1.3 1.3 0 0 0 .93-2.24 1.3 1.3 0 0 0-2.02.2 1.31 1.31 0 0 0 1.09 2.04zM210.86 124.33a1.94 1.94 0 1 0 0 3.88 1.94 1.94 0 0 0 0-3.88zM221.84 133.08a2.33 2.33 0 1 0 0-4.67 2.33 2.33 0 0 0 0 4.67z"/><path fill="#D4D4D4" d="M233.21 113.8a.9.9 0 1 0 0-1.8h-5.37a.9.9 0 0 0-.9.9v12.31c0 .24.1.47.27.64a14.8 14.8 0 0 1-18.7 22.77 14.8 14.8 0 0 1-2.24-22.77.9.9 0 0 0 .26-.64v-12.3a.9.9 0 0 0-.9-.9h-5.73a.9.9 0 0 0-.9.9.9.9 0 0 0 .9.89h4.83v11.05a16.6 16.6 0 1 0 24 0V113.8h4.48zM199.89 161.91l-2.9-1.59v-6.73a.9.9 0 0 0-.78-.9l-17.74-2.4h-.27l-.1.02-.05.02a.76.76 0 0 0-.11.05l-21.11 11.5a.9.9 0 0 0-.47.8v30.7a.9.9 0 0 0 .9.9.9.9 0 0 0 .43-.1l20.69-11.29 20.7 11.28a.9.9 0 0 0 .88-.02.9.9 0 0 0 .44-.77V162.7a.9.9 0 0 0-.51-.79zm-22.43 19.43-19.32 10.53v-28.64l19.32-10.53v28.64zm17.73-26.98v4.98l-12.14-6.62 12.14 1.64zm3.38 37.5-19.32-10.53V152.7l19.31 10.53v28.64z"/><path fill="#D4D4D4" d="m171.38 177.68-9.12 4.97a.9.9 0 0 0 .87 1.58l9.1-4.98a.9.9 0 0 0-.52-1.7.9.9 0 0 0-.34.13h.01zM164.2 174.84c.15 0 .3-.04.43-.1l6.1-3.33a.9.9 0 0 0-.87-1.58l-6.1 3.33a.9.9 0 0 0 .44 1.69v-.01zM161.51 167.64c.15 0 .3-.04.43-.11l11.48-6.26a.9.9 0 0 0 .43-1.25.89.89 0 0 0-.57-.45.9.9 0 0 0-.71.13l-11.48 6.26a.9.9 0 0 0 .43 1.68h-.01zM194.45 182.65l-9.12-4.97a.89.89 0 0 0-1.04.04.88.88 0 0 0-.35.64.9.9 0 0 0 .54.9l9.1 4.97c.14.07.29.1.44.1a.9.9 0 0 0 .82-1.25.9.9 0 0 0-.39-.43zM192.09 174.74a.9.9 0 0 0 1.25-1.15.9.9 0 0 0-.4-.43l-6.1-3.32a.92.92 0 0 0-.7-.11.9.9 0 0 0-.15 1.68l6.1 3.33zM183.3 161.28l11.48 6.26a.9.9 0 1 0 .86-1.58l-11.48-6.25a.9.9 0 0 0-.86 1.57zM78.64 76.24a12.42 12.42 0 1 0 0 24.83 12.42 12.42 0 0 0 0-24.83zm0 23.02a10.62 10.62 0 1 1 0-21.25 10.62 10.62 0 0 1 0 21.25z"/><path fill="#D4D4D4" d="M98.55 91.84a.9.9 0 0 0 .73-.88v-4.63a.9.9 0 0 0-.73-.88l-3.13-.6c-.1-.44-.22-.87-.35-1.3l2.41-2.1a.9.9 0 0 0 .2-1.13l-2.32-4.01a.9.9 0 0 0-1.08-.4l-3.02 1.05c-.3-.33-.62-.64-.95-.95L91.37 73a.9.9 0 0 0-.4-1.08l-4.02-2.31a.9.9 0 0 0-1.13.19l-2.08 2.41a17.3 17.3 0 0 0-1.3-.35l-.6-3.13a.9.9 0 0 0-.88-.73h-4.62a.9.9 0 0 0-.88.73l-.6 3.13c-.44.1-.88.22-1.3.35l-2.1-2.41a.9.9 0 0 0-1.13-.2l-4.02 2.32a.9.9 0 0 0-.4 1.08L66.96 76c-.32.3-.64.62-.94.95L63 75.91a.9.9 0 0 0-1.08.4l-2.32 4.01a.9.9 0 0 0 .2 1.13l2.41 2.1c-.13.43-.25.86-.35 1.3l-3.13.6a.9.9 0 0 0-.73.88v4.63a.9.9 0 0 0 .73.88l3.13.6c.1.44.22.88.35 1.3l-2.41 2.09a.9.9 0 0 0-.2 1.12l2.32 4.03a.9.9 0 0 0 1.08.4l3.02-1.05c.3.32.62.64.94.94l-1.05 3a.9.9 0 0 0 .4 1.08l4.03 2.32a.9.9 0 0 0 1.13-.19l2.1-2.41c.42.13.86.24 1.3.34l.6 3.14a.9.9 0 0 0 .88.73h4.64a.9.9 0 0 0 .88-.73l.6-3.14c.43-.1.87-.21 1.3-.34l2.1 2.41a.9.9 0 0 0 1.12.2l4.02-2.33a.9.9 0 0 0 .4-1.07l-1.1-3c.33-.3.65-.62.95-.95l3.02 1.05a.9.9 0 0 0 1.08-.4l2.31-4.01a.9.9 0 0 0-.19-1.13l-2.41-2.08c.13-.43.25-.87.35-1.3l3.13-.62zm-5.1 2.87 2.31 1.99-1.58 2.73-2.88-1a.9.9 0 0 0-.97.26c-.5.58-1.05 1.12-1.63 1.62a.9.9 0 0 0-.27.98l1 2.88-2.72 1.58-2-2.31a.9.9 0 0 0-.97-.26c-.72.25-1.47.45-2.22.6a.9.9 0 0 0-.72.71l-.57 3h-3.17l-.57-3a.9.9 0 0 0-.71-.71c-.76-.15-1.5-.35-2.23-.6a.91.91 0 0 0-.98.25l-2 2.3-2.72-1.57 1-2.88a.9.9 0 0 0-.26-.98c-.58-.5-1.13-1.04-1.63-1.63a.9.9 0 0 0-.97-.26l-2.89 1-1.57-2.72 2.3-2a.9.9 0 0 0 .27-.97c-.26-.72-.46-1.47-.6-2.22a.9.9 0 0 0-.72-.72l-3-.57v-3.14l3-.57a.9.9 0 0 0 .72-.72c.14-.75.34-1.5.6-2.22a.9.9 0 0 0-.26-.98l-2.31-1.99 1.57-2.73 2.89 1a.9.9 0 0 0 .97-.26c.5-.58 1.05-1.12 1.63-1.62a.9.9 0 0 0 .26-.98l-1-2.88 2.73-1.57 2 2.3a.9.9 0 0 0 .97.26c.72-.25 1.47-.45 2.22-.6a.9.9 0 0 0 .72-.71l.57-3h3.15l.57 3a.9.9 0 0 0 .72.71c.76.15 1.5.35 2.23.6a.9.9 0 0 0 .97-.26l2-2.3 2.72 1.57-1 2.88a.9.9 0 0 0 .26.98c.58.5 1.13 1.04 1.63 1.62a.9.9 0 0 0 .98.27l2.88-1 1.58 2.72-2.32 2a.9.9 0 0 0-.26.97c.26.72.46 1.47.6 2.22a.9.9 0 0 0 .71.72l3 .57v3.15l-3 .57a.9.9 0 0 0-.71.72c-.14.75-.35 1.5-.6 2.23a.9.9 0 0 0 .26.97h.02zM31.64 103a20.65 20.65 0 0 0-20.24 24.66 20.63 20.63 0 0 0 37.4 7.43A20.62 20.62 0 0 0 31.64 103zm0 39.47a18.85 18.85 0 1 1-.01-37.7 18.85 18.85 0 0 1 .01 37.7z"/><path fill="#D4D4D4" d="M33.34 124.05a1.77 1.77 0 0 0 0-.85l3-3a.9.9 0 0 0 .03-1.3.9.9 0 0 0-.66-.27.9.9 0 0 0-.64.3l-3 3a1.7 1.7 0 0 0-.43-.06 1.74 1.74 0 0 0-1.68 1.07 1.75 1.75 0 0 0 1.68 2.43c.14 0 .29-.02.43-.06l5.7 5.7a.9.9 0 0 0 1 .24.9.9 0 0 0 .5-.5.9.9 0 0 0-.23-1l-5.7-5.7z"/><path fill="#D4D4D4" d="M48.48 123.62a16.78 16.78 0 0 0-5.02-11.96 16.8 16.8 0 0 0-23.8.14 16.78 16.78 0 0 0 .16 23.78 16.8 16.8 0 0 0 23.71-.06l.07-.08a16.78 16.78 0 0 0 4.87-11.81v-.01zm-4.61.9h2.78a14.95 14.95 0 0 1-3.76 9.07l-1.97-1.96a.9.9 0 0 0-1.27 1.27l1.97 1.96a15 15 0 0 1-9.08 3.77v-2.79a.9.9 0 1 0-1.8 0v2.79a15 15 0 0 1-9.08-3.77l1.97-1.96a.9.9 0 0 0-.65-1.5.9.9 0 0 0-.63.23l-1.96 1.96a14.95 14.95 0 0 1-3.77-9.07h2.79a.9.9 0 0 0 .63-1.54.9.9 0 0 0-.63-.26h-2.78c.2-3.36 1.52-6.56 3.77-9.07l1.96 1.96a.9.9 0 0 0 1.3.04.9.9 0 0 0-.03-1.3l-1.97-1.97a15 15 0 0 1 9.08-3.77v2.79a.9.9 0 0 0 1.8 0v-2.79a15 15 0 0 1 9.08 3.77l-1.96 1.96a.9.9 0 0 0 1.27 1.27l1.96-1.96a14.95 14.95 0 0 1 3.77 9.07h-2.79a.9.9 0 0 0 0 1.8zM137.52 111.94l-.03-.09a.65.65 0 0 0-.04-.09c0-.02-.03-.04-.04-.06a.95.95 0 0 0-.11-.14l-12.8-12.8a.92.92 0 0 0-.14-.11l-.07-.04a.5.5 0 0 0-.18-.07l-.07-.02a.84.84 0 0 0-.18-.02h-19.62a.9.9 0 0 0-.9.9v40.46a.9.9 0 0 0 .9.9h32.43a.9.9 0 0 0 .9-.9v-27.67l-.02-.18-.03-.07zm-12.77-10.38 9.75 9.73h-9.75v-9.73zm11.02 37.4h-30.64v-38.67h17.83v11.9a.9.9 0 0 0 .9.9h11.9v25.86z"/><path fill="#D4D4D4" d="M110.93 119.65a.9.9 0 0 0 .9.9h16.08a.9.9 0 0 0 0-1.8h-16.08a.9.9 0 0 0-.9.9zM126.11 128.02a.9.9 0 0 0 .9-.9.9.9 0 0 0-.9-.9h-12.49a.9.9 0 0 0-.9.9.9.9 0 0 0 .9.9h12.49zM127.9 133.71h-16.08a.9.9 0 1 0 0 1.8h16.08a.9.9 0 1 0 0-1.8zM143.14 167.59l-20.88-8.19a.91.91 0 0 0-.65 0l-21.34 8.19a.9.9 0 0 0-.56.84.9.9 0 0 0 .56.83l2.04.8v3.2a1.9 1.9 0 0 0-.45 3.02v4.8a1.35 1.35 0 1 0 2.7 0v-4.8a1.9 1.9 0 0 0-.46-3.02v-2.5l5.2 2.03v.04a12.41 12.41 0 0 0 24.84 0v-.11l9-3.46a.9.9 0 0 0 .41-1.34.9.9 0 0 0-.41-.33zm-21.43 15.84a10.65 10.65 0 0 1-10.6-9.93l10.05 3.95a.9.9 0 0 0 .65 0l10.51-4.04a10.63 10.63 0 0 1-10.6 10.02h-.02zm-.23-7.79-17.92-7.02-.48-.18 18.85-7.24 18.4 7.22-18.85 7.22zM62.52 17.6l-2.91-1.58V9.3a.9.9 0 0 0-.78-.9L41.1 6h-.18l-.08.01-.1.02-.05.02-.11.05-21.11 11.51a.9.9 0 0 0-.47.79v30.68a.9.9 0 0 0 1.33.8L41 38.58l20.7 11.28a.9.9 0 0 0 1.32-.79V18.4a.9.9 0 0 0-.5-.8zM40.08 37.05 20.77 47.57V18.93L40.08 8.4v28.64zm17.74-26.98v4.98L45.68 8.43l12.14 1.63zm3.37 37.5L41.88 37.03V8.4l19.31 10.53v28.63z"/><path fill="#D4D4D4" d="m34 33.38-9.12 4.97a.9.9 0 0 0 .86 1.57l9.1-4.97a.9.9 0 0 0-.86-1.57H34zM26.82 30.54c.15 0 .3-.04.43-.1l6.1-3.33a.9.9 0 0 0-.86-1.58l-6.1 3.33a.9.9 0 0 0 .43 1.68zM24.13 23.34c.15 0 .3-.04.43-.1l11.48-6.27a.9.9 0 1 0-.85-1.57L23.7 21.66a.9.9 0 0 0 .43 1.68zM57.08 38.35l-9.12-4.97a.9.9 0 1 0-.86 1.57l9.12 4.97c.13.07.28.11.43.11a.9.9 0 0 0 .43-1.68zM54.71 30.43c.13.08.28.11.43.11a.9.9 0 0 0 .43-1.68l-6.1-3.33a.9.9 0 0 0-.86 1.58l6.1 3.32zM45.92 16.97l11.48 6.26a.9.9 0 1 0 .86-1.57L46.78 15.4a.9.9 0 0 0-.86 1.57zM16.95 183.08a3.97 3.97 0 1 0 7.94 0 3.97 3.97 0 0 0-7.94 0zM21.92 161.5a1.3 1.3 0 0 0 1.29-1.56 1.31 1.31 0 1 0-1.3 1.56zM15.86 166.33a1.94 1.94 0 1 0 0 3.87 1.94 1.94 0 0 0 0-3.87zM26.84 175.08a2.34 2.34 0 1 0 .01-4.67 2.34 2.34 0 0 0 0 4.67z"/><path fill="#D4D4D4" d="M38.2 155.8a.9.9 0 1 0 0-1.8h-5.36a.9.9 0 0 0-.9.9v12.31c0 .24.1.47.26.64a14.8 14.8 0 1 1-24.15 16.13 14.8 14.8 0 0 1 3.21-16.13.9.9 0 0 0 .27-.64v-12.3a.9.9 0 0 0-.9-.9H4.9a.9.9 0 0 0-.64 1.53c.17.17.4.26.64.26h4.83v11.05a16.6 16.6 0 1 0 24 0V155.8h4.48zM64.61 175.21l25.26-25.25a8.23 8.23 0 0 0-11.64-11.64l-25.15 25.14-.1.1a.9.9 0 0 0-.25.5l-1.72 11.68a.9.9 0 0 0 .9 1.03h.1l12.1-1.31a.9.9 0 0 0 .5-.25zm19.44-37.5A6.43 6.43 0 0 1 89.18 148l-9-9a6.39 6.39 0 0 1 3.87-1.3zm-5.19 2.52 9.12 9.09-22.47 22.44a3.33 3.33 0 0 0-3.32-2.37 3.33 3.33 0 0 0-3.33-3.46h-.12v-.12a3.33 3.33 0 0 0-2.33-3.17l22.45-22.41zM63.48 173.7l-10.54 1.14 1.5-10.22a1.54 1.54 0 0 1 2.51 1.18 1.54 1.54 0 0 1-.45 1.1.9.9 0 0 0 1.27 1.26 1.58 1.58 0 0 1 2.18 0 1.54 1.54 0 0 1 0 2.18.9.9 0 1 0 1.26 1.27 1.52 1.52 0 0 1 1.1-.45 1.51 1.51 0 0 1 1.08.45 1.54 1.54 0 0 1 .08 2.1z"/><path fill="#D4D4D4" d="M66.7 166.33a.9.9 0 0 0 1.28 0l15.65-15.65a.9.9 0 0 0-1.27-1.26L66.7 165.06a.9.9 0 0 0 0 1.27zM62.44 166.6a.9.9 0 0 0 .63-.26l15.65-15.65a.9.9 0 0 0 .28-1.03.9.9 0 0 0-.9-.57.9.9 0 0 0-.65.34L61.8 165.08a.9.9 0 0 0 .64 1.53v-.01zM62.44 161.7a.9.9 0 0 0 .65-.27l15.65-15.65a.9.9 0 0 0 .04-1.3.9.9 0 0 0-.66-.27.89.89 0 0 0-.65.3l-15.65 15.65a.9.9 0 0 0 .64 1.53l-.02.01zM449.62 47.21l25.26-25.25a8.23 8.23 0 0 0-11.65-11.64l-25.15 25.15-.09.08a.9.9 0 0 0-.25.5L436 47.76a.9.9 0 0 0 .53.95.9.9 0 0 0 .37.07h.1l12.1-1.3a.9.9 0 0 0 .51-.26zm19.44-37.5A6.43 6.43 0 0 1 474.18 20l-9-9a6.39 6.39 0 0 1 3.88-1.3zm-5.2 2.52 9.12 9.09-22.46 22.45a3.32 3.32 0 0 0-3.33-2.38 3.35 3.35 0 0 0-2.02-3.19 3.33 3.33 0 0 0-1.3-.26h-.12v-.12a3.32 3.32 0 0 0-2.34-3.18l22.46-22.41zM448.49 45.7l-10.54 1.15 1.5-10.23a1.54 1.54 0 0 1 2.07 2.27.9.9 0 0 0 .03 1.24.9.9 0 0 0 1.23.03 1.58 1.58 0 0 1 2.18 0 1.55 1.55 0 0 1 .34 1.68c-.08.19-.2.36-.34.5a.89.89 0 0 0-.25 1.01.9.9 0 0 0 .5.51.9.9 0 0 0 1.02-.25 1.54 1.54 0 0 1 2.18 0 1.53 1.53 0 0 1 .08 2.1z"/><path fill="#D4D4D4" d="M451.71 38.33a.9.9 0 0 0 1.27 0l15.65-15.64a.9.9 0 0 0-1.27-1.27l-15.65 15.64a.9.9 0 0 0 0 1.27zM447.44 38.6a.9.9 0 0 0 .63-.26l15.66-15.65a.9.9 0 1 0-1.27-1.25L446.8 37.08a.9.9 0 0 0 .14 1.38c.15.1.32.15.5.15zM447.44 33.7a.9.9 0 0 0 .64-.27l15.66-15.65a.9.9 0 0 0 .04-1.3.9.9 0 0 0-1.31.03l-15.65 15.65a.9.9 0 0 0 .13 1.38c.15.1.32.15.5.15h-.01zM304.53 211.62l-2.9-1.59v-6.73a.9.9 0 0 0-.78-.9L283.1 200h-.27l-.1.02-.05.02a.76.76 0 0 0-.11.05l-21.11 11.5a.89.89 0 0 0-.47.8v30.7a.9.9 0 0 0 1.33.8l20.69-11.29 20.7 11.28a.91.91 0 0 0 .88-.02.9.9 0 0 0 .44-.77v-30.68a.9.9 0 0 0-.51-.79zm-22.43 19.43-19.32 10.53v-28.64l19.32-10.53v28.64zm17.73-26.98v4.98l-12.14-6.62 12.14 1.64zm3.37 37.5-19.3-10.53v-28.63l19.3 10.53v28.64z"/><path fill="#D4D4D4" d="m276.01 227.39-9.12 4.97a.9.9 0 0 0-.11 1.5.9.9 0 0 0 .97.08l9.12-4.98a.9.9 0 0 0 .3-1.18.9.9 0 0 0-1.16-.39zM268.84 224.55c.15 0 .3-.04.43-.1l6.1-3.33a.9.9 0 0 0-.86-1.58l-6.1 3.32a.9.9 0 0 0-.44 1.01.9.9 0 0 0 .87.68zM266.15 217.36c.15 0 .3-.04.43-.11l11.48-6.26a.9.9 0 0 0 .43-1.25.9.9 0 0 0-.94-.46.9.9 0 0 0-.34.14l-11.48 6.26a.9.9 0 0 0 .43 1.68h-.01zM299.09 232.36l-9.12-4.97a.9.9 0 0 0-1.04.04.9.9 0 0 0 .19 1.53l9.1 4.98c.14.07.29.1.44.1a.9.9 0 0 0 .82-1.25.9.9 0 0 0-.39-.43zM296.72 224.45a.9.9 0 0 0 1.25-1.15.9.9 0 0 0-.4-.43l-6.1-3.32a.9.9 0 0 0-1.03.05.9.9 0 0 0-.3.99.9.9 0 0 0 .48.53l6.1 3.33zM287.94 210.99l11.48 6.26a.9.9 0 0 0 1.16-.39.9.9 0 0 0-.3-1.18l-11.48-6.26a.9.9 0 0 0-.86 1.57zM361.43 223.24l-20.88-8.19a.91.91 0 0 0-.65 0l-21.33 8.19a.9.9 0 0 0 0 1.67l2.03.8v3.2a1.9 1.9 0 0 0-.45 3.02v4.8a1.35 1.35 0 0 0 2.3.96c.25-.25.4-.6.4-.95v-4.82a1.9 1.9 0 0 0 .2-2.43 1.9 1.9 0 0 0-.66-.58v-2.5l5.2 2.03v.04a12.41 12.41 0 0 0 24.84 0v-.11l9-3.46a.9.9 0 0 0 .57-.84.9.9 0 0 0-.57-.83zM340 239.08a10.65 10.65 0 0 1-10.6-9.93l10.04 3.94a.87.87 0 0 0 .65 0l10.52-4.03a10.63 10.63 0 0 1-10.6 10.02H340zm-.23-7.79-17.92-7.02-.47-.19 18.84-7.23 18.41 7.22-18.86 7.22zM224.06 193.92a.9.9 0 0 0 .9.9h42.21a.9.9 0 0 0 .53-1.63l-19.74-14.01 4.07-5.68a.9.9 0 0 0-.2-1.25l-11.08-7.93a.9.9 0 0 0-1.25.21l-4.1 5.73-9.92-7.05a.9.9 0 1 0-1.05 1.46l18.22 12.93v5.54l-.43-.43a.9.9 0 0 0-1.27 1.27l1.96 1.96.04.03.05.04a.76.76 0 0 0 .34.16h.19c.05 0 .11 0 .17-.02h.02c.05 0 .1-.02.14-.04h.03a.85.85 0 0 0 .26-.18l2.02-2.01a.9.9 0 0 0-1.27-1.27l-.48.48v-4.25l9.99 7.1a4.82 4.82 0 0 0-2.62 3.01 4.73 4.73 0 0 0 .76 4.03h-27.61a.9.9 0 0 0-.88.9zm20.4-17.24v-2.76a2.01 2.01 0 1 0-1.8 0v1.5l-5.79-4.11 3.57-4.99 9.6 6.87-3.55 4.96-2.04-1.47zm9.09 12.78c.3-1.1 1.47-2.04 2.72-2.18l8.1 5.75h-8.84a2.94 2.94 0 0 1-2-3.57h.02zM407.58 238.62a8.08 8.08 0 0 0 .6-10.74l7.8-7.79a8.07 8.07 0 0 0 10.74-12l-16.56-16.55a5.46 5.46 0 0 0-7.72 7.71.9.9 0 0 0 1.27-1.27 3.66 3.66 0 1 1 5.17-5.18l12.97 12.97a8.07 8.07 0 0 0-7.15 13.05l-7.8 7.8a8.06 8.06 0 0 0-13.06 7.15l-12.97-12.97a3.66 3.66 0 1 1 5.17-5.18.9.9 0 0 0 1.27-1.26 5.46 5.46 0 0 0-7.71 7.7l16.56 16.56a8.1 8.1 0 0 0 11.42 0zm9-29.27a6.28 6.28 0 1 1 8.88 8.89 6.28 6.28 0 0 1-8.89-8.89zm-19.15 19.14a6.28 6.28 0 1 1 8.88 8.88 6.28 6.28 0 0 1-8.88-8.88z"/></svg>